<svg width="264" height="60" viewBox="0 0 264 60" fill="none" xmlns="http://www.w3.org/2000/svg">
<mask id="mask0_13_2972" style="mask-type:luminance" maskUnits="userSpaceOnUse" x="0" y="17" width="26" height="28">
<path d="M17.6158 19.3957C13.8812 17.5975 5.16707 15.1078 1.73982 22.2082C-1.10341 28.0944 -0.918987 40.2665 5.82793 43.5247C12.2521 46.6292 21.9806 39.8823 25.0697 33.4582C28.5584 26.2655 21.3658 21.2092 17.6158 19.3957Z" fill="white"/>
</mask>
<g mask="url(#mask0_13_2972)">
<path d="M28.5583 15.1074H-1.10352V46.6289H28.5583V15.1074Z" fill="url(#paint0_linear_13_2972)"/>
</g>
<mask id="mask1_13_2972" style="mask-type:luminance" maskUnits="userSpaceOnUse" x="0" y="17" width="15" height="24">
<path d="M8.82485 17.4897C6.01235 17.7049 3.32281 18.9344 1.73982 22.1926C-0.59624 27.0184 -0.888247 36.0553 2.7849 40.9579C9.53181 40.6967 14.9416 35.1331 14.9416 28.3248C14.9416 23.7295 12.4826 19.7182 8.82485 17.4897Z" fill="white"/>
</mask>
<g mask="url(#mask1_13_2972)">
<path d="M14.9417 17.4897H-0.888184V40.9579H14.9417V17.4897Z" fill="url(#paint1_linear_13_2972)"/>
</g>
<path fill-rule="evenodd" clip-rule="evenodd" d="M10.838 31.1373C10.3923 31.291 9.93121 31.7981 9.68531 32.4744C9.54699 32.8432 9.28572 33.75 9.80826 33.9344C10.3154 34.1188 10.715 33.2735 10.8533 32.9047C11.0992 32.2285 11.0839 31.5522 10.838 31.1373ZM14.8646 32.751C14.4343 32.9047 14.0193 33.3658 13.7888 33.9959C13.6658 34.334 13.4199 35.1947 13.8964 35.3637C14.3728 35.5481 14.7417 34.7336 14.88 34.3955C15.1105 33.7807 15.0798 33.1506 14.8646 32.751ZM20.0132 29.4313C19.5675 29.6004 19.1064 30.0922 18.8605 30.7684C18.7222 31.1373 18.4609 32.044 18.9834 32.2285C19.4906 32.4129 19.8902 31.5676 20.0285 31.1988C20.2744 30.5225 20.2437 29.8463 20.0132 29.4313ZM14.7724 27.4795C14.3267 27.6486 13.8656 28.1404 13.6197 28.8166C13.4814 29.1854 13.2201 30.0922 13.7427 30.2766C14.2498 30.4611 14.6494 29.6158 14.7878 29.2469C15.0337 28.5553 15.0183 27.8945 14.7724 27.4795ZM9.54699 25.5123C9.1013 25.666 8.64023 26.1732 8.39433 26.8494C8.25601 27.2182 7.99474 28.125 8.51728 28.3094C9.02445 28.4938 9.42404 27.6486 9.56236 27.2797C9.79289 26.6035 9.77752 25.9273 9.54699 25.5123ZM5.3513 24.1598C4.90561 24.3135 4.44454 24.8207 4.19864 25.4969C4.06032 25.8658 3.79905 26.7725 4.32159 26.957C4.82876 27.1414 5.22835 26.2961 5.36667 25.9273C5.61257 25.251 5.5972 24.5748 5.3513 24.1598ZM8.82466 20.9478C8.44044 21.0861 8.05622 21.5164 7.84105 22.1004C7.7181 22.4232 7.50294 23.1916 7.94863 23.3607C8.39433 23.5297 8.73244 22.792 8.84002 22.4693C9.03982 21.8853 9.02445 21.3012 8.82466 20.9478ZM14.6341 22.7305C14.173 22.8227 13.6505 23.2377 13.297 23.8525C13.1126 24.1906 12.713 25.0359 13.1894 25.3125C13.6658 25.5738 14.1884 24.8053 14.3728 24.4518C14.7263 23.8371 14.8031 23.1762 14.6341 22.7305ZM19.214 24.9436C18.8451 25.082 18.4763 25.4816 18.2765 26.0195C18.1689 26.3115 17.9537 27.0492 18.3687 27.2029C18.7837 27.3566 19.1064 26.665 19.214 26.3576C19.4291 25.835 19.4138 25.2818 19.214 24.9436ZM5.07466 35.1947C4.65971 35.3483 4.24475 35.794 4.01422 36.4242C3.89127 36.7623 3.66073 37.5922 4.1218 37.7612C4.59823 37.9303 4.95171 37.1465 5.07466 36.8084C5.32057 36.1936 5.28983 35.5789 5.07466 35.1947ZM8.96298 38.1608C8.54802 38.3145 8.13306 38.7602 7.90253 39.3903C7.77958 39.7285 7.53368 40.5584 8.01011 40.7274C8.48654 40.8965 8.84003 40.1127 8.96298 39.7746C9.19351 39.1598 9.17814 38.5451 8.96298 38.1608ZM6.25806 29.8309C5.84311 29.9846 5.42815 30.4303 5.19762 31.0604C5.07466 31.3986 4.82876 32.2285 5.3052 32.3975C5.78163 32.5666 6.13511 31.7828 6.25806 31.4447C6.4886 30.8299 6.47323 30.2152 6.25806 29.8309Z" fill="#E60000"/>
<mask id="mask2_13_2972" style="mask-type:luminance" maskUnits="userSpaceOnUse" x="13" y="0" width="28" height="25">
<path d="M13.4663 1.69057C17.1395 4.64138 21.0124 8.60654 23.5175 12.7407C26.8525 18.4887 25.7767 24.5286 25.7767 24.5286C27.8054 17.5666 32.9693 16.7366 36.9191 12.4026C39.2398 9.85141 40.9765 6.22437 40.915 1.09119C40.1927 0.230532 27.4212 0.153687 25.623 11.0502C24.0862 7.91494 21.6118 3.85757 17.8157 0C16.3249 0.430327 14.8649 0.998973 13.4663 1.69057Z" fill="white"/>
</mask>
<g mask="url(#mask2_13_2972)">
<path d="M27.2216 38.2837L53.241 12.2643L27.2216 -13.7551L1.20215 12.2643L27.2216 38.2837Z" fill="url(#paint2_linear_13_2972)"/>
</g>
<mask id="mask3_13_2972" style="mask-type:luminance" maskUnits="userSpaceOnUse" x="25" y="1" width="16" height="24">
<path d="M25.8532 20.21C26.0991 22.7459 25.7764 24.5287 25.7764 24.5287C27.8051 17.5666 32.969 16.7367 36.9188 12.4027C39.1011 9.98978 40.7763 6.62401 40.8993 1.93652C40.1769 3.75004 38.886 5.82484 36.596 7.4693C31.3706 11.2039 26.1452 15.6762 25.8532 20.21Z" fill="white"/>
</mask>
<g mask="url(#mask3_13_2972)">
<path d="M33.338 32.0901L52.1956 13.2325L33.338 -5.625L14.4805 13.2325L33.338 32.0901Z" fill="url(#paint3_linear_13_2972)"/>
</g>
<mask id="mask4_13_2972" style="mask-type:luminance" maskUnits="userSpaceOnUse" x="8" y="6" width="17" height="18">
<path d="M8.01025 6.40877C8.01025 6.40877 8.22542 14.7233 15.8945 17.1977C20.167 18.919 23.1793 20.963 24.6854 23.1147C23.6864 13.6014 19.4754 6.02455 8.01025 6.40877Z" fill="white"/>
</mask>
<g mask="url(#mask4_13_2972)">
<path d="M24.6854 6.02441H8.01025V23.1299H24.6854V6.02441Z" fill="url(#paint4_linear_13_2972)"/>
</g>
<mask id="mask5_13_2972" style="mask-type:luminance" maskUnits="userSpaceOnUse" x="8" y="6" width="17" height="18">
<path d="M8.01025 6.40877C8.01025 6.40877 8.04099 7.49996 8.44058 8.99073C8.44058 8.99073 21.75 8.91389 24.6854 23.1147C23.6864 13.6014 19.4754 6.02455 8.01025 6.40877Z" fill="white"/>
</mask>
<g mask="url(#mask5_13_2972)">
<path d="M28.9734 7.16185L9.13225 1.84424L3.73779 21.9774L23.5789 27.295L28.9734 7.16185Z" fill="url(#paint5_linear_13_2972)"/>
</g>
<mask id="mask6_13_2972" style="mask-type:luminance" maskUnits="userSpaceOnUse" x="11" y="30" width="30" height="31">
<path d="M25.7459 30.9224C33.7685 30.9224 40.2848 37.4234 40.2848 45.4613C40.2848 53.4838 33.7838 60.0002 25.7459 60.0002C17.7234 60.0002 11.207 53.4992 11.207 45.4613C11.207 37.4234 17.708 30.9224 25.7459 30.9224Z" fill="white"/>
</mask>
<g mask="url(#mask6_13_2972)">
<path d="M40.2848 30.9224H11.207V60.0002H40.2848V30.9224Z" fill="url(#paint6_linear_13_2972)"/>
</g>
<mask id="mask7_13_2972" style="mask-type:luminance" maskUnits="userSpaceOnUse" x="21" y="31" width="20" height="29">
<path d="M28.5892 31.1987C35.2592 32.5204 40.2695 38.4067 40.2695 45.461C40.2695 53.4835 33.7685 59.9999 25.7306 59.9999C24.1476 59.9999 22.6261 59.7386 21.1968 59.2776C30.5257 59.9845 38.0871 41.0655 28.5892 31.1987Z" fill="white"/>
</mask>
<g mask="url(#mask7_13_2972)">
<path d="M40.2695 31.1987H21.1968V59.9845H40.2695V31.1987Z" fill="url(#paint7_linear_13_2972)"/>
</g>
<mask id="mask8_13_2972" style="mask-type:luminance" maskUnits="userSpaceOnUse" x="11" y="31" width="16" height="25">
<path d="M15.3412 55.6198C12.7747 53.0071 11.207 49.4108 11.207 45.461C11.207 38.3298 16.3402 32.3975 23.1179 31.168C25.4539 33.8114 26.8832 37.2694 26.8832 41.0809C26.8832 48.1505 21.9652 54.0829 15.3412 55.6198Z" fill="white"/>
</mask>
<g mask="url(#mask8_13_2972)">
<path d="M26.8832 31.1523H11.207V55.6041H26.8832V31.1523Z" fill="url(#paint8_linear_13_2972)"/>
</g>
<path fill-rule="evenodd" clip-rule="evenodd" d="M25.1621 57.5101C19.5371 55.9579 15.3876 50.8093 15.3876 44.6771C15.3876 43.6013 15.5105 42.5562 15.7564 41.5573C16.3404 39.0983 17.616 36.9159 19.3527 35.1946C16.8783 36.7468 14.988 39.1597 14.1427 42.0337C13.8199 43.1095 13.6509 44.2622 13.6509 45.4456C13.6662 51.9312 18.7687 57.2181 25.1621 57.5101Z" fill="white"/>
<mask id="mask9_13_2972" style="mask-type:luminance" maskUnits="userSpaceOnUse" x="27" y="15" width="28" height="43">
<path d="M51.6424 45.5532C49.4139 50.8862 43.7736 59.7079 36.5041 56.2346C32.6158 54.3749 33.8607 50.6249 32.9232 47.2131C30.2951 37.6075 25.1619 34.0112 27.8054 24.9436C33.123 6.79306 63.9374 16.1834 51.6424 45.5532Z" fill="white"/>
</mask>
<g mask="url(#mask9_13_2972)">
<path d="M63.9376 6.79297H25.1621V59.7078H63.9376V6.79297Z" fill="url(#paint9_linear_13_2972)"/>
</g>
<mask id="mask10_13_2972" style="mask-type:luminance" maskUnits="userSpaceOnUse" x="35" y="28" width="20" height="30">
<path d="M51.6424 45.5531C49.414 50.886 43.7736 59.7077 36.5041 56.2344C36.2736 56.1268 36.0738 56.0039 35.874 55.8809C41.8218 55.9885 56.0072 42.5715 54.0553 28.2017C55.0389 32.8123 54.5471 38.6217 51.6424 45.5531Z" fill="white"/>
</mask>
<g mask="url(#mask10_13_2972)">
<path d="M55.992 28.2017H35.8589V59.7077H55.992V28.2017Z" fill="url(#paint10_linear_13_2972)"/>
</g>
<mask id="mask11_13_2972" style="mask-type:luminance" maskUnits="userSpaceOnUse" x="27" y="15" width="18" height="27">
<path d="M31.0328 41.8646C28.4815 35.8554 25.6998 32.1054 27.8053 24.9281C29.9416 17.628 36.2121 14.7847 42.1444 15.922C43.4508 18.4271 44.1731 21.2857 44.1731 24.3134C44.1885 32.6279 38.6403 39.6515 31.0328 41.8646Z" fill="white"/>
</mask>
<g mask="url(#mask11_13_2972)">
<path d="M44.1887 14.7852H25.7153V41.865H44.1887V14.7852Z" fill="url(#paint11_linear_13_2972)"/>
</g>
<path fill-rule="evenodd" clip-rule="evenodd" d="M35.3974 43.9552C35.3974 43.9552 29.3421 36.486 29.9107 28.3251C30.3103 22.6694 34.8441 22.0547 32.9845 28.6786C32.0624 31.9522 33.0152 37.1776 35.3974 43.9552Z" fill="white"/>
<path d="M92.2552 16.08V20.36H79.4352V28.92H90.2552V33.22H79.4352V45H74.0152V16.08H92.2552ZM94.9852 45V24.48H97.8852C98.3919 24.48 98.7452 24.5733 98.9452 24.76C99.1452 24.9467 99.2785 25.2667 99.3452 25.72L99.6452 28.2C100.379 26.9333 101.239 25.9333 102.225 25.2C103.212 24.4667 104.319 24.1 105.545 24.1C106.559 24.1 107.399 24.3333 108.065 24.8L107.425 28.5C107.385 28.74 107.299 28.9133 107.165 29.02C107.032 29.1133 106.852 29.16 106.625 29.16C106.425 29.16 106.152 29.1133 105.805 29.02C105.459 28.9267 104.999 28.88 104.425 28.88C103.399 28.88 102.519 29.1667 101.785 29.74C101.052 30.3 100.432 31.1267 99.9252 32.22V45H94.9852ZM115.833 24.48V37.52C115.833 38.7733 116.12 39.7467 116.693 40.44C117.28 41.12 118.153 41.46 119.313 41.46C120.167 41.46 120.967 41.2733 121.713 40.9C122.46 40.5133 123.167 39.9867 123.833 39.32V24.48H128.773V45H125.753C125.113 45 124.693 44.7 124.493 44.1L124.153 42.46C123.727 42.8867 123.287 43.28 122.833 43.64C122.38 43.9867 121.893 44.2867 121.373 44.54C120.867 44.78 120.313 44.9667 119.713 45.1C119.127 45.2467 118.493 45.32 117.813 45.32C116.693 45.32 115.7 45.1333 114.833 44.76C113.98 44.3733 113.26 43.8333 112.673 43.14C112.087 42.4467 111.64 41.6267 111.333 40.68C111.04 39.72 110.893 38.6667 110.893 37.52V24.48H115.833ZM139.308 24.48V45H134.368V24.48H139.308ZM140.048 18.5C140.048 18.9267 139.961 19.3267 139.788 19.7C139.614 20.0733 139.381 20.4 139.088 20.68C138.808 20.96 138.474 21.1867 138.088 21.36C137.701 21.52 137.288 21.6 136.848 21.6C136.421 21.6 136.014 21.52 135.628 21.36C135.254 21.1867 134.928 20.96 134.648 20.68C134.368 20.4 134.141 20.0733 133.968 19.7C133.808 19.3267 133.728 18.9267 133.728 18.5C133.728 18.06 133.808 17.6467 133.968 17.26C134.141 16.8733 134.368 16.54 134.648 16.26C134.928 15.98 135.254 15.76 135.628 15.6C136.014 15.4267 136.421 15.34 136.848 15.34C137.288 15.34 137.701 15.4267 138.088 15.6C138.474 15.76 138.808 15.98 139.088 16.26C139.381 16.54 139.614 16.8733 139.788 17.26C139.961 17.6467 140.048 18.06 140.048 18.5ZM151.647 45.32C149.874 45.32 148.507 44.82 147.547 43.82C146.587 42.8067 146.107 41.4133 146.107 39.64V28.18H144.027C143.76 28.18 143.527 28.0933 143.327 27.92C143.14 27.7467 143.047 27.4867 143.047 27.14V25.18L146.347 24.64L147.387 19.04C147.44 18.7733 147.56 18.5667 147.747 18.42C147.947 18.2733 148.194 18.2 148.487 18.2H151.047V24.66H156.447V28.18H151.047V39.3C151.047 39.94 151.207 40.44 151.527 40.8C151.847 41.16 152.274 41.34 152.807 41.34C153.114 41.34 153.367 41.3067 153.567 41.24C153.78 41.16 153.96 41.08 154.107 41C154.267 40.92 154.407 40.8467 154.527 40.78C154.647 40.7 154.767 40.66 154.887 40.66C155.034 40.66 155.154 40.7 155.247 40.78C155.34 40.8467 155.44 40.9533 155.547 41.1L157.027 43.5C156.307 44.1 155.48 44.5533 154.547 44.86C153.614 45.1667 152.647 45.32 151.647 45.32ZM168.39 45V16.08H178.37C180.264 16.08 181.877 16.26 183.21 16.62C184.557 16.98 185.657 17.4933 186.51 18.16C187.377 18.8267 188.01 19.6333 188.41 20.58C188.81 21.5267 189.01 22.5933 189.01 23.78C189.01 24.46 188.91 25.1133 188.71 25.74C188.51 26.3533 188.197 26.9333 187.77 27.48C187.357 28.0133 186.824 28.5 186.17 28.94C185.53 29.38 184.764 29.7533 183.87 30.06C187.844 30.9533 189.83 33.1 189.83 36.5C189.83 37.7267 189.597 38.86 189.13 39.9C188.664 40.94 187.984 41.84 187.09 42.6C186.197 43.3467 185.097 43.9333 183.79 44.36C182.484 44.7867 180.99 45 179.31 45H168.39ZM173.77 32.32V40.8H179.23C180.23 40.8 181.064 40.68 181.73 40.44C182.41 40.2 182.95 39.88 183.35 39.48C183.764 39.08 184.057 38.6133 184.23 38.08C184.417 37.5467 184.51 36.98 184.51 36.38C184.51 35.7533 184.41 35.1933 184.21 34.7C184.01 34.1933 183.697 33.7667 183.27 33.42C182.844 33.06 182.297 32.7867 181.63 32.6C180.964 32.4133 180.157 32.32 179.21 32.32H173.77ZM173.77 28.6H178.07C179.897 28.6 181.284 28.2667 182.23 27.6C183.177 26.9333 183.65 25.8733 183.65 24.42C183.65 22.9133 183.224 21.84 182.37 21.2C181.517 20.56 180.184 20.24 178.37 20.24H173.77V28.6ZM198.685 24.48V37.52C198.685 38.7733 198.972 39.7467 199.545 40.44C200.132 41.12 201.005 41.46 202.165 41.46C203.018 41.46 203.818 41.2733 204.565 40.9C205.312 40.5133 206.018 39.9867 206.685 39.32V24.48H211.625V45H208.605C207.965 45 207.545 44.7 207.345 44.1L207.005 42.46C206.578 42.8867 206.138 43.28 205.685 43.64C205.232 43.9867 204.745 44.2867 204.225 44.54C203.718 44.78 203.165 44.9667 202.565 45.1C201.978 45.2467 201.345 45.32 200.665 45.32C199.545 45.32 198.552 45.1333 197.685 44.76C196.832 44.3733 196.112 43.8333 195.525 43.14C194.938 42.4467 194.492 41.6267 194.185 40.68C193.892 39.72 193.745 38.6667 193.745 37.52V24.48H198.685ZM216.899 45V24.48H219.799C220.306 24.48 220.659 24.5733 220.859 24.76C221.059 24.9467 221.193 25.2667 221.259 25.72L221.559 28.2C222.293 26.9333 223.153 25.9333 224.139 25.2C225.126 24.4667 226.233 24.1 227.459 24.1C228.473 24.1 229.313 24.3333 229.979 24.8L229.339 28.5C229.299 28.74 229.213 28.9133 229.079 29.02C228.946 29.1133 228.766 29.16 228.539 29.16C228.339 29.16 228.066 29.1133 227.719 29.02C227.373 28.9267 226.913 28.88 226.339 28.88C225.313 28.88 224.433 29.1667 223.699 29.74C222.966 30.3 222.346 31.1267 221.839 32.22V45H216.899ZM245.407 28.48C245.274 28.6933 245.134 28.8467 244.987 28.94C244.841 29.02 244.654 29.06 244.427 29.06C244.187 29.06 243.927 28.9933 243.647 28.86C243.381 28.7267 243.067 28.58 242.707 28.42C242.347 28.2467 241.934 28.0933 241.467 27.96C241.014 27.8267 240.474 27.76 239.847 27.76C238.874 27.76 238.107 27.9667 237.547 28.38C236.987 28.7933 236.707 29.3333 236.707 30C236.707 30.44 236.847 30.8133 237.127 31.12C237.421 31.4133 237.801 31.6733 238.267 31.9C238.747 32.1267 239.287 32.3333 239.887 32.52C240.487 32.6933 241.101 32.8867 241.727 33.1C242.354 33.3133 242.967 33.56 243.567 33.84C244.167 34.1067 244.701 34.4533 245.167 34.88C245.647 35.2933 246.027 35.7933 246.307 36.38C246.601 36.9667 246.747 37.6733 246.747 38.5C246.747 39.4867 246.567 40.4 246.207 41.24C245.847 42.0667 245.321 42.7867 244.627 43.4C243.934 44 243.074 44.4733 242.047 44.82C241.034 45.1533 239.867 45.32 238.547 45.32C237.841 45.32 237.147 45.2533 236.467 45.12C235.801 45 235.154 44.8267 234.527 44.6C233.914 44.3733 233.341 44.1067 232.807 43.8C232.287 43.4933 231.827 43.16 231.427 42.8L232.567 40.92C232.714 40.6933 232.887 40.52 233.087 40.4C233.287 40.28 233.541 40.22 233.847 40.22C234.154 40.22 234.441 40.3067 234.707 40.48C234.987 40.6533 235.307 40.84 235.667 41.04C236.027 41.24 236.447 41.4267 236.927 41.6C237.421 41.7733 238.041 41.86 238.787 41.86C239.374 41.86 239.874 41.7933 240.287 41.66C240.714 41.5133 241.061 41.3267 241.327 41.1C241.607 40.8733 241.807 40.6133 241.927 40.32C242.061 40.0133 242.127 39.7 242.127 39.38C242.127 38.9 241.981 38.5067 241.687 38.2C241.407 37.8933 241.027 37.6267 240.547 37.4C240.081 37.1733 239.541 36.9733 238.927 36.8C238.327 36.6133 237.707 36.4133 237.067 36.2C236.441 35.9867 235.821 35.74 235.207 35.46C234.607 35.1667 234.067 34.8 233.587 34.36C233.121 33.92 232.741 33.38 232.447 32.74C232.167 32.1 232.027 31.3267 232.027 30.42C232.027 29.58 232.194 28.78 232.527 28.02C232.861 27.26 233.347 26.6 233.987 26.04C234.641 25.4667 235.447 25.0133 236.407 24.68C237.381 24.3333 238.501 24.16 239.767 24.16C241.181 24.16 242.467 24.3933 243.627 24.86C244.787 25.3267 245.754 25.94 246.527 26.7L245.407 28.48ZM257.428 45.32C255.655 45.32 254.288 44.82 253.328 43.82C252.368 42.8067 251.888 41.4133 251.888 39.64V28.18H249.808C249.542 28.18 249.308 28.0933 249.108 27.92C248.922 27.7467 248.828 27.4867 248.828 27.14V25.18L252.128 24.64L253.168 19.04C253.222 18.7733 253.342 18.5667 253.528 18.42C253.728 18.2733 253.975 18.2 254.268 18.2H256.828V24.66H262.228V28.18H256.828V39.3C256.828 39.94 256.988 40.44 257.308 40.8C257.628 41.16 258.055 41.34 258.588 41.34C258.895 41.34 259.148 41.3067 259.348 41.24C259.562 41.16 259.742 41.08 259.888 41C260.048 40.92 260.188 40.8467 260.308 40.78C260.428 40.7 260.548 40.66 260.668 40.66C260.815 40.66 260.935 40.7 261.028 40.78C261.122 40.8467 261.222 40.9533 261.328 41.1L262.808 43.5C262.088 44.1 261.262 44.5533 260.328 44.86C259.395 45.1667 258.428 45.32 257.428 45.32Z" fill="white"/>
<defs>
<linearGradient id="paint0_linear_13_2972" x1="21.6923" y1="30.8708" x2="-2.98307" y2="30.8708" gradientUnits="userSpaceOnUse">
<stop stop-color="#FF0000"/>
<stop offset="1" stop-color="#F38288"/>
</linearGradient>
<linearGradient id="paint1_linear_13_2972" x1="21.7535" y1="29.2315" x2="2.15552" y2="29.2315" gradientUnits="userSpaceOnUse">
<stop stop-color="#FF0000"/>
<stop offset="1" stop-color="#F38288"/>
</linearGradient>
<linearGradient id="paint2_linear_13_2972" x1="25.5399" y1="13.9498" x2="41.9467" y2="-2.457" gradientUnits="userSpaceOnUse">
<stop stop-color="#4BBC39"/>
<stop offset="1" stop-color="#BEDE19"/>
</linearGradient>
<linearGradient id="paint3_linear_13_2972" x1="27.3191" y1="19.258" x2="43.8918" y2="2.6853" gradientUnits="userSpaceOnUse">
<stop stop-color="#3AA34E"/>
<stop offset="1" stop-color="#BEDE19"/>
</linearGradient>
<linearGradient id="paint4_linear_13_2972" x1="20.3713" y1="14.5706" x2="3.55298" y2="14.5706" gradientUnits="userSpaceOnUse">
<stop stop-color="#4BBC39"/>
<stop offset="1" stop-color="#BEDE19"/>
</linearGradient>
<linearGradient id="paint5_linear_13_2972" x1="24.2613" y1="16.6901" x2="4.31066" y2="11.3444" gradientUnits="userSpaceOnUse">
<stop stop-color="#3AA34E"/>
<stop offset="1" stop-color="#BEDE19"/>
</linearGradient>
<linearGradient id="paint6_linear_13_2972" x1="12.5431" y1="45.4558" x2="33.7789" y2="45.4558" gradientUnits="userSpaceOnUse">
<stop stop-color="#FFBE04"/>
<stop offset="1" stop-color="#FF7F00"/>
</linearGradient>
<linearGradient id="paint7_linear_13_2972" x1="12.3805" y1="45.5967" x2="29.4365" y2="45.5967" gradientUnits="userSpaceOnUse">
<stop stop-color="#FFBE04"/>
<stop offset="1" stop-color="#FF7F00"/>
</linearGradient>
<linearGradient id="paint8_linear_13_2972" x1="18.6455" y1="43.3886" x2="33.579" y2="43.3886" gradientUnits="userSpaceOnUse">
<stop stop-color="#FFBE04"/>
<stop offset="1" stop-color="#FF7F00"/>
</linearGradient>
<linearGradient id="paint9_linear_13_2972" x1="52.2997" y1="33.2505" x2="29.0928" y2="33.2505" gradientUnits="userSpaceOnUse">
<stop stop-color="#016737"/>
<stop offset="1" stop-color="#4BBC39"/>
</linearGradient>
<linearGradient id="paint10_linear_13_2972" x1="47.8088" y1="43.9586" x2="32.088" y2="43.9586" gradientUnits="userSpaceOnUse">
<stop stop-color="#016737"/>
<stop offset="1" stop-color="#4BBC39"/>
</linearGradient>
<linearGradient id="paint11_linear_13_2972" x1="52.47" y1="28.3283" x2="31.9037" y2="28.3283" gradientUnits="userSpaceOnUse">
<stop stop-color="#016737"/>
<stop offset="1" stop-color="#4BBC39"/>
</linearGradient>
</defs>
</svg>
